<svg width="277" height="60" viewBox="0 0 277 60" fill="none" xmlns="http://www.w3.org/2000/svg">
<path d="M10.8 46.48C9.072 46.48 7.488 46.048 6.048 45.184C4.64 44.288 3.504 43.12 2.64 41.68C1.776 40.208 1.344 38.592 1.344 36.832L1.392 21.616C1.392 19.856 1.808 18.256 2.64 16.816C3.504 15.376 4.656 14.224 6.096 13.36C7.536 12.496 9.104 12.064 10.8 12.064C12.528 12.064 14.096 12.496 15.504 13.36C16.912 14.224 18.032 15.376 18.864 16.816C19.728 18.256 20.16 19.856 20.16 21.616L20.208 36.832C20.208 38.592 19.776 40.208 18.912 41.68C18.08 43.12 16.944 44.288 15.504 45.184C14.096 46.048 12.528 46.48 10.8 46.48ZM10.8 40.672C11.76 40.672 12.592 40.288 13.296 39.52C14.032 38.72 14.4 37.824 14.4 36.832L14.352 21.616C14.352 20.56 14.016 19.664 13.344 18.928C12.672 18.192 11.824 17.824 10.8 17.824C9.808 17.824 8.96 18.192 8.256 18.928C7.552 19.632 7.2 20.528 7.2 21.616V36.832C7.2 37.888 7.552 38.8 8.256 39.568C8.96 40.304 9.808 40.672 10.8 40.672ZM45.4245 46C45.2965 46 45.2325 45.92 45.2325 45.76L45.3285 12.784C45.3285 12.656 45.3925 12.592 45.5205 12.592H54.7365C56.5605 12.592 58.1925 13.04 59.6325 13.936C61.0725 14.8 62.2085 15.952 63.0405 17.392C63.8725 18.832 64.2885 20.4 64.2885 22.096C64.2885 23.472 63.9685 24.752 63.3285 25.936C62.7205 27.12 61.9845 28.08 61.1205 28.816C62.0485 29.744 62.7685 30.816 63.2805 32.032C63.7925 33.248 64.0485 34.528 64.0485 35.872C64.0485 37.728 63.6005 39.424 62.7045 40.96C61.8085 42.496 60.5925 43.728 59.0565 44.656C57.5525 45.552 55.8725 46 54.0165 46H45.4245ZM51.0885 25.84H54.7365C55.8565 25.84 56.7525 25.456 57.4245 24.688C58.1285 23.888 58.4805 23.024 58.4805 22.096C58.4805 21.072 58.1125 20.192 57.3765 19.456C56.6405 18.688 55.7605 18.304 54.7365 18.304H51.0885V25.84ZM51.0405 40.144H54.0165C55.1685 40.144 56.1605 39.728 56.9925 38.896C57.8245 38.032 58.2405 37.024 58.2405 35.872C58.2405 34.72 57.8245 33.728 56.9925 32.896C56.1605 32.064 55.1685 31.648 54.0165 31.648H51.0885L51.0405 40.144ZM67.7381 46C67.5781 46 67.4981 45.92 67.4981 45.76L67.5461 12.784C67.5461 12.656 67.6101 12.592 67.7381 12.592H73.1141C73.2421 12.592 73.3061 12.656 73.3061 12.784L73.3541 45.76C73.3541 45.92 73.2901 46 73.1621 46H67.7381ZM77.7683 46C77.6403 46 77.5763 45.92 77.5763 45.76L77.6723 12.832C77.6723 12.672 77.7363 12.592 77.8643 12.592H83.2403C83.3683 12.592 83.4323 12.672 83.4323 12.832V24.208L90.9683 12.784C91.0643 12.656 91.1763 12.592 91.3043 12.592H96.8243C96.9523 12.592 96.9843 12.656 96.9203 12.784L88.6163 26.032L97.9283 45.808C97.9923 45.936 97.9123 46 97.6883 46H91.8323C91.6723 46 91.5763 45.936 91.5443 45.808L85.0643 31.696L83.3843 34.336V45.76C83.3843 45.92 83.3203 46 83.1923 46H77.7683ZM100.268 46C100.14 46 100.076 45.92 100.076 45.76L100.124 12.784C100.124 12.656 100.188 12.592 100.316 12.592H115.724C115.852 12.592 115.916 12.672 115.916 12.832V18.208C115.916 18.336 115.852 18.4 115.724 18.4H105.884V25.888H115.724C115.852 25.888 115.916 25.952 115.916 26.08L115.964 31.504C115.964 31.632 115.9 31.696 115.772 31.696H105.884V40.096H115.772C115.9 40.096 115.964 40.176 115.964 40.336V45.808C115.964 45.936 115.9 46 115.772 46H100.268ZM120.425 46C120.297 46 120.233 45.92 120.233 45.76L120.329 12.784C120.329 12.656 120.393 12.592 120.521 12.592H130.217C131.945 12.592 133.529 13.024 134.969 13.888C136.441 14.72 137.609 15.856 138.473 17.296C139.337 18.704 139.769 20.304 139.769 22.096C139.769 23.28 139.593 24.352 139.241 25.312C138.889 26.24 138.473 27.04 137.993 27.712C137.513 28.352 137.081 28.832 136.697 29.152C138.425 31.072 139.289 33.328 139.289 35.92L139.337 45.76C139.337 45.92 139.257 46 139.097 46H133.673C133.545 46 133.481 45.952 133.481 45.856V35.92C133.481 34.768 133.065 33.776 132.233 32.944C131.433 32.08 130.441 31.648 129.257 31.648H126.089L126.041 45.76C126.041 45.92 125.977 46 125.849 46H120.425ZM126.089 25.888H130.217C131.209 25.888 132.089 25.52 132.857 24.784C133.625 24.048 134.009 23.152 134.009 22.096C134.009 21.072 133.625 20.192 132.857 19.456C132.121 18.72 131.241 18.352 130.217 18.352H126.089V25.888ZM151.408 46.48C149.68 46.48 148.096 46.048 146.656 45.184C145.248 44.288 144.112 43.12 143.248 41.68C142.416 40.208 142 38.592 142 36.832V34.624C142 34.464 142.08 34.384 142.24 34.384H147.616C147.744 34.384 147.808 34.464 147.808 34.624V36.832C147.808 37.888 148.16 38.8 148.864 39.568C149.568 40.304 150.416 40.672 151.408 40.672C152.4 40.672 153.248 40.288 153.952 39.52C154.656 38.752 155.008 37.856 155.008 36.832C155.008 35.648 154.24 34.624 152.704 33.76C152.192 33.472 151.392 33.024 150.304 32.416C149.216 31.808 148.192 31.232 147.232 30.688C145.472 29.664 144.16 28.384 143.296 26.848C142.464 25.28 142.048 23.52 142.048 21.568C142.048 19.776 142.48 18.176 143.344 16.768C144.208 15.328 145.344 14.192 146.752 13.36C148.192 12.528 149.744 12.112 151.408 12.112C153.104 12.112 154.656 12.544 156.064 13.408C157.504 14.24 158.64 15.376 159.472 16.816C160.336 18.224 160.768 19.808 160.768 21.568V25.504C160.768 25.632 160.704 25.696 160.576 25.696H155.2C155.072 25.696 155.008 25.632 155.008 25.504L154.96 21.568C154.96 20.448 154.608 19.536 153.904 18.832C153.2 18.128 152.368 17.776 151.408 17.776C150.416 17.776 149.568 18.16 148.864 18.928C148.16 19.664 147.808 20.544 147.808 21.568C147.808 22.624 148.032 23.504 148.48 24.208C148.928 24.912 149.744 25.584 150.928 26.224C151.088 26.32 151.392 26.496 151.84 26.752C152.32 26.976 152.832 27.248 153.376 27.568C153.92 27.856 154.4 28.112 154.816 28.336C155.264 28.56 155.536 28.704 155.632 28.768C157.232 29.664 158.496 30.768 159.424 32.08C160.352 33.36 160.816 34.944 160.816 36.832C160.816 38.656 160.384 40.304 159.52 41.776C158.688 43.216 157.552 44.368 156.112 45.232C154.704 46.064 153.136 46.48 151.408 46.48Z" fill="white"/>
<path d="M23.8856 46C23.6296 46 23.5016 45.888 23.5016 45.664L23.4536 12.976C23.4536 12.72 23.5816 12.592 23.8376 12.592H28.1576L36.2696 31.504L36.0296 12.976C36.0296 12.72 36.1736 12.592 36.4616 12.592H41.2136C41.4056 12.592 41.5016 12.72 41.5016 12.976L41.5496 45.712C41.5496 45.904 41.4696 46 41.3096 46H37.0856L28.7816 28.336L29.1176 45.616C29.1176 45.872 28.9736 46 28.6856 46H23.8856Z" fill="#FF9900"/>
</svg>
